<svg width="200" height="200" viewBox="0 0 200 200" fill="none" xmlns="http://www.w3.org/2000/svg">
  <!-- شاشة الكمبيوتر -->
  <path d="M60 40 L170 40 Q180 40 180 50 L180 110 L60 110 Q50 110 50 100 L50 50 Q50 40 60 40 Z" fill="#F1C40F"/>
  <rect x="60" y="50" width="110" height="50" fill="white"/>
  <rect x="100" y="110" width="30" height="20" fill="#F1C40F"/>
  <rect x="80" y="130" width="70" height="8" rx="4" fill="#F1C40F"/>
  
  <!-- الهاتف المحمول -->
  <path d="M30 70 L80 70 Q90 70 90 80 L90 150 Q90 160 80 160 L30 160 Q20 160 20 150 L20 80 Q20 70 30 70 Z" fill="#F1C40F"/>
  <rect x="30" y="85" width="50" height="35" fill="white"/>
  <rect x="45" y="75" width="20" height="4" rx="2" fill="#F1C40F"/>
  <circle cx="55" cy="145" r="6" fill="#F1C40F"/>
</svg>

